# xmcd CD database file
#
# Track frame offsets:
#	150
#	17350
#	35565
#	65192
#	95750
#	109567
#	131225
#	147075
#	166970
#	187007
#
# Disc length: 2866 seconds
#
# Revision: 3
# Processed by: cddbd v1.4PL0 Copyright (c) Steve Scherf et al.
# Submitted via: CDex 1.50beta10
#
DISCID=8d0b300a
DTITLE=Terry Evans - Come to the River
DYEAR=1997
DGENRE=Blues
TTITLE0=Get Up, Get Ready
TTITLE1=By Babe
TTITLE2=Please No More
TTITLE3=The River
TTITLE4=I got Loaded
TTITLE5=What You Need
TTITLE6=I Just Want to Make Love to You
TTITLE7=Feeling Alright
TTITLE8=Tears Are Rolling
TTITLE9=Love Is a Precious Thing
EXTD=YEAR: 1997
EXTT0=
EXTT1=
EXTT2=
EXTT3=
EXTT4=
EXTT5=
EXTT6=
EXTT7=
EXTT8=
EXTT9=
PLAYORDER=
